<svg width="428" height="58" viewBox="0 0 428 58" fill="none" xmlns="http://www.w3.org/2000/svg">
<g clip-path="url(#clip0)">
<path d="M28.1842 40.2389C37.9202 40.2389 45.8127 32.3463 45.8127 22.6104C45.8127 12.8745 37.9202 4.98193 28.1842 4.98193C18.4483 4.98193 10.5558 12.8745 10.5558 22.6104C10.5558 32.3463 18.4483 40.2389 28.1842 40.2389Z" fill="#08AFC9"/>
<path d="M38.1246 31.5855C38.5318 29.305 39.506 27.1784 40.8663 25.3033C42.021 23.7115 41.9523 21.5389 40.6969 20.023C40.3605 19.6169 39.7411 19.5626 39.3308 19.8937L35.7831 22.7568C35.1637 23.2567 34.2381 22.8507 34.1863 22.0565L33.8024 16.1692C33.7392 15.2011 33.1957 14.3289 32.3545 13.8456L30.7443 12.9207C29.7638 12.3574 28.5114 12.7363 28.0075 13.7487L24.0043 21.792C23.6198 22.5644 22.9917 23.1888 22.2171 23.5687L19.7454 24.7807C18.6986 25.294 17.8276 26.1064 17.2427 27.1149L15.0336 30.9237C14.1683 32.4156 13.5033 34.015 13.0557 35.6805L11.5504 41.2814L8.48759 45.152C8.23353 45.4731 8.20534 45.918 8.41668 46.2686L8.88691 47.0483L3.58295 52.417H39.6318L40.2462 43.7068C39.1946 42.8662 38.5209 41.5725 38.5209 40.1216C39.3143 39.2969 39.8021 38.1762 39.8021 36.9415C38.4135 36.8501 37.4129 35.5719 37.6575 34.2019L38.1246 31.5855Z" fill="#787D82"/>
<path d="M37.6575 34.2026C37.4129 35.5726 38.4137 36.8503 39.8024 36.9416C39.8024 38.1761 39.3143 39.2977 38.5207 40.1216C38.5207 41.5732 39.1944 42.8666 40.2463 43.7072L39.6315 52.4174H31.6736L35.1571 43.9557C26.992 42.9167 21.2154 35.4567 22.2534 27.2916C22.2534 27.2916 22.8486 24.1146 24.0045 21.792L28.0075 13.7487C28.5113 12.7371 29.7644 12.358 30.7446 12.9208L32.3542 13.8459C33.1958 14.3291 33.7389 15.2012 33.8028 16.1695L34.1868 22.0571C34.2378 22.8507 35.164 23.2572 35.7837 22.7574L39.331 19.8946C39.7415 19.5626 40.3612 19.6176 40.697 20.0232C41.9521 21.5396 42.0209 23.7119 40.866 25.3039C39.5058 27.1787 38.5315 29.3049 38.1249 31.5863L37.6575 34.2026Z" fill="#B8B8B8"/>
<path d="M32.3542 13.8459L31.4683 15.6205C30.9822 16.5928 29.7978 16.9856 28.8265 16.4956L27.0784 15.6146L28.0075 13.7487C28.5113 12.7371 29.7644 12.358 30.7445 12.9208L32.3542 13.8459Z" fill="#263138"/>
<path d="M45.8054 28.4502C45.8054 28.9942 45.3644 29.4353 44.8203 29.4353C44.2762 29.4353 43.8352 28.9942 43.8352 28.4502C43.8352 27.9061 44.2762 27.465 44.8203 27.465C45.3644 27.465 45.8054 27.9061 45.8054 28.4502ZM46.7242 24.222C46.6122 25.5268 44.6568 25.3589 44.7687 24.0542L44.7685 24.0544C45.4105 16.6694 41.0199 9.48302 33.7122 6.91005C25.0549 3.86194 15.5319 8.42531 12.4837 17.0826C10.7919 21.8879 11.4472 26.9585 13.8439 31.0419C13.9539 30.8364 16.3932 26.6221 16.3932 26.6221C17.0779 25.4415 18.0876 24.4999 19.313 23.8989L21.7847 22.6869C22.3623 22.4036 22.8383 21.9304 23.125 21.3543L27.1283 13.3111C27.8841 11.7926 29.7627 11.2243 31.2335 12.0691L32.8436 12.9941C33.9729 13.6427 34.6976 14.8058 34.7824 16.1054L35.1663 21.9921L38.7141 19.1295C39.5462 18.458 40.775 18.5776 41.4533 19.3966C42.9948 21.258 43.0803 23.9241 41.6613 25.8801C40.3232 27.7247 39.4586 29.7024 39.0915 31.7583L38.6243 34.3747C38.5602 34.7342 38.6407 35.0898 38.8483 35.3857C40.0618 34.3761 41.1401 33.1875 42.0373 31.8414L42.0366 31.8444C42.7581 30.7635 44.3896 31.8525 43.6681 32.9334C42.7998 34.2378 41.7795 35.4089 40.6413 36.4328C41.1066 37.3057 40.4223 39.4679 39.5201 40.4751C39.614 41.4411 40.0904 42.325 40.8594 42.9398C41.1115 43.1414 41.2485 43.454 41.2259 43.776L40.6116 52.4863C40.5753 53.0006 40.1475 53.3993 39.6319 53.3993H3.60544C2.67374 53.3993 2.29995 52.3317 2.88429 51.727L7.65105 46.9022C7.12298 46.12 7.21736 45.1748 7.71754 44.5428L10.6546 40.8311L12.1073 35.4258C12.314 34.6565 12.5677 33.9013 12.8615 33.1621C9.60845 28.4299 8.58158 22.2631 10.6346 16.432C14.0473 6.73926 24.6709 1.64851 34.3632 5.06107C42.5453 7.94193 47.448 15.9617 46.7242 24.222V24.222ZM28.3942 15.1761L29.272 15.6169C29.7575 15.8608 30.3487 15.6641 30.5914 15.1779L31.0618 14.2356L30.2553 13.7723C29.765 13.4906 29.1388 13.6801 28.8868 14.1862L28.3942 15.1761ZM13.5078 37.7822C14.5027 37.0956 15.6498 36.6434 16.8756 36.4717L18.6119 36.2283C19.3058 36.1365 19.762 36.7067 19.7269 37.2826L19.5701 39.1608C19.3774 41.471 17.8472 43.4275 15.6718 44.1453C15.1564 44.3155 14.6013 44.0354 14.4314 43.5204C14.2615 43.0054 14.5413 42.4501 15.0563 42.2801C16.4822 41.8096 17.6553 40.4893 17.6673 38.344C15.7734 38.4935 14.2899 39.4019 13.3452 40.5958L9.25774 45.7613L9.72797 46.541C10.2019 47.3268 11.1427 47.678 12.0155 47.3951L16.2363 46.0272C18.731 45.2185 20.7767 43.4948 21.997 41.1735C22.2494 40.6935 22.8431 40.5089 23.3232 40.7612C23.8033 41.0135 23.988 41.6074 23.7356 42.0875C22.2754 44.8652 19.8273 46.9279 16.8419 47.8957L12.6212 49.2636C10.9305 49.7994 9.56867 49.1333 8.83594 48.4973L5.93377 51.4348H31.016L33.7802 44.7187C27.2707 43.3556 22.2207 38.0218 21.2995 31.3555C21.2253 30.8181 21.6006 30.3223 22.1379 30.2482C22.6749 30.1748 23.1709 30.5493 23.2451 31.0866C24.1034 37.2975 29.0547 42.1713 35.2804 42.9807C36.074 43.084 36.2594 43.9013 36.0647 44.3288L33.14 51.4348H38.7166L39.2324 44.1215C38.1502 43.0752 37.5388 41.6447 37.5388 40.1215C37.5388 39.8691 37.635 39.6252 37.8103 39.4435C38.283 38.9532 38.6016 38.3504 38.7407 37.6976C37.4143 37.2104 36.4069 35.7277 36.6907 34.0291L37.1579 31.4127C37.5775 29.0625 38.5578 26.813 40.0714 24.7265C40.9608 23.5004 40.9102 21.8308 39.95 20.6607C39.9476 20.6604 36.3999 23.5209 36.3999 23.5209C35.2473 24.4558 33.3275 23.8095 33.2063 22.12L32.8223 16.2329C32.8054 15.9743 32.7365 15.727 32.6245 15.5025L32.3476 16.0574C31.6189 17.5172 29.8426 18.1068 28.3856 17.3726L27.5184 16.9356L24.8835 22.2294C23.804 24.3983 23.2246 27.4418 23.2189 27.4723C23.1303 27.9442 22.6877 28.3574 22.0727 28.2564C21.5377 28.1686 21.1886 27.6437 21.2884 27.1106C21.302 27.0383 21.4823 26.0888 21.8307 24.8519L20.178 25.6623C19.3026 26.0916 18.5814 26.7643 18.0923 27.6075L15.8832 31.4164C15.0614 32.8333 14.4292 34.3537 14.0042 35.9353L13.5078 37.7822Z" fill="#E1E1E6"/>
</g>
<path d="M59.004 21.624H55.988V17.256H68.572V21.624H65.4L70.236 37.588L76.944 17.984H81.468L88.124 37.588L93.064 21.624H89.632V17.256H101.696V21.624H98.628L90.516 47H85.68L78.972 27.968L72.316 47H67.428L59.004 21.624ZM109.341 22.248C108.197 22.248 107.261 21.9013 106.533 21.208C105.805 20.5147 105.441 19.6307 105.441 18.556C105.441 17.4467 105.805 16.5453 106.533 15.852C107.261 15.1587 108.197 14.812 109.341 14.812C110.485 14.812 111.403 15.1587 112.097 15.852C112.825 16.5453 113.189 17.4467 113.189 18.556C113.223 19.6307 112.877 20.5147 112.149 21.208C111.421 21.9013 110.485 22.248 109.341 22.248ZM103.569 43.1H106.741V30.204H103.621V26.304H113.033V43.1H116.049V47H103.569V43.1ZM117.993 43.1H121.061V20.584H118.045V16.736H127.301V43.1H130.161V47H117.993V43.1ZM131.957 43.1H135.077V20.584H132.009V16.736H141.317V35.976L148.857 30.204H145.737V26.304H157.229V30.204H154.733L147.557 35.872L154.473 43.1H157.385V47H150.573L141.317 36.86V43.1H144.177V47H131.957V43.1ZM183.124 42.632H186.712V21.52H180.42V28.02H175.636V17.256H204.808V28.02H200.076V21.52H193.836V42.632H197.476V47H183.124V42.632ZM228.692 37.744H213.352C213.629 39.3733 214.322 40.6387 215.432 41.54C216.576 42.4067 217.997 42.84 219.696 42.84C222.261 42.84 224.566 41.956 226.612 40.188L228.432 43.984C227.288 45.0933 225.918 45.9773 224.324 46.636C222.729 47.26 220.978 47.572 219.072 47.572C215.536 47.572 212.676 46.6013 210.492 44.66C208.342 42.684 207.268 40.0147 207.268 36.652C207.268 34.5373 207.736 32.6653 208.672 31.036C209.642 29.372 210.977 28.0893 212.676 27.188C214.374 26.252 216.281 25.784 218.396 25.784C221.585 25.784 224.098 26.772 225.936 28.748C227.773 30.6893 228.692 33.2547 228.692 36.444V37.744ZM222.764 34.78C222.764 33.2547 222.365 32.076 221.568 31.244C220.77 30.412 219.678 29.996 218.292 29.996C216.94 29.996 215.83 30.412 214.964 31.244C214.097 32.076 213.56 33.2547 213.352 34.78H222.764ZM252.352 43.672C249.856 46.2373 246.615 47.52 242.628 47.52C240.375 47.52 238.364 47.052 236.596 46.116C234.863 45.18 233.511 43.88 232.54 42.216C231.57 40.5173 231.084 38.5933 231.084 36.444C231.084 34.364 231.535 32.5093 232.436 30.88C233.372 29.2507 234.62 28.0027 236.18 27.136C237.775 26.2347 239.56 25.784 241.536 25.784C244.206 25.784 246.234 26.564 247.62 28.124V26.252H252.04V34.416H247.984C247.776 33.064 247.239 32.0067 246.372 31.244C245.506 30.4813 244.344 30.1 242.888 30.1C241.155 30.1 239.751 30.6547 238.676 31.764C237.636 32.8733 237.116 34.3467 237.116 36.184C237.116 38.16 237.706 39.7547 238.884 40.968C240.063 42.1813 241.623 42.788 243.564 42.788C244.951 42.788 246.182 42.5453 247.256 42.06C248.366 41.54 249.406 40.8293 250.376 39.928L252.352 43.672ZM280.242 43.1V47H268.23V43.1H270.882V33.948C270.882 32.7693 270.604 31.8507 270.05 31.192C269.495 30.5333 268.715 30.204 267.71 30.204C266.323 30.204 264.78 30.7067 263.082 31.712V43.1H265.682V47H253.67V43.1H256.738V20.584H253.722V16.736H263.082V28.176C265.543 26.5813 267.918 25.784 270.206 25.784C272.32 25.784 274.002 26.4427 275.25 27.76C276.532 29.0427 277.174 30.7587 277.174 32.908V43.1H280.242ZM308.228 43.1V47H296.216V43.1H298.868V33.948C298.868 32.7693 298.591 31.8507 298.036 31.192C297.482 30.5333 296.702 30.204 295.696 30.204C294.31 30.204 292.819 30.672 291.224 31.608V43.1H294.032V47H281.76V43.1H284.932V30.204H281.76V26.304H290.86L290.912 28.228C293.443 26.5987 295.87 25.784 298.192 25.784C300.307 25.784 301.988 26.4427 303.236 27.76C304.519 29.0427 305.16 30.7587 305.16 32.908V43.1H308.228ZM320.979 47.572C318.725 47.572 316.732 47.1213 314.999 46.22C313.3 45.3187 311.983 44.036 311.047 42.372C310.111 40.708 309.643 38.8013 309.643 36.652C309.643 34.5027 310.111 32.6133 311.047 30.984C311.983 29.32 313.3 28.0373 314.999 27.136C316.732 26.2347 318.725 25.784 320.979 25.784C323.232 25.784 325.225 26.2347 326.959 27.136C328.692 28.0373 330.027 29.3027 330.963 30.932C331.933 32.5613 332.419 34.4507 332.419 36.6C332.419 38.784 331.933 40.708 330.963 42.372C330.027 44.036 328.692 45.3187 326.959 46.22C325.225 47.1213 323.232 47.572 320.979 47.572ZM320.979 42.788C322.643 42.8227 323.96 42.2853 324.931 41.176C325.936 40.032 326.439 38.5067 326.439 36.6C326.439 34.7627 325.936 33.3067 324.931 32.232C323.96 31.1227 322.643 30.568 320.979 30.568C319.349 30.568 318.049 31.1227 317.079 32.232C316.108 33.3067 315.623 34.78 315.623 36.652C315.623 38.524 316.108 40.032 317.079 41.176C318.049 42.2853 319.349 42.8227 320.979 42.788ZM334.575 43.1H337.643V20.584H334.627V16.736H343.883V43.1H346.743V47H334.575V43.1ZM359.979 47.572C357.725 47.572 355.732 47.1213 353.999 46.22C352.3 45.3187 350.983 44.036 350.047 42.372C349.111 40.708 348.643 38.8013 348.643 36.652C348.643 34.5027 349.111 32.6133 350.047 30.984C350.983 29.32 352.3 28.0373 353.999 27.136C355.732 26.2347 357.725 25.784 359.979 25.784C362.232 25.784 364.225 26.2347 365.959 27.136C367.692 28.0373 369.027 29.3027 369.963 30.932C370.933 32.5613 371.419 34.4507 371.419 36.6C371.419 38.784 370.933 40.708 369.963 42.372C369.027 44.036 367.692 45.3187 365.959 46.22C364.225 47.1213 362.232 47.572 359.979 47.572ZM359.979 42.788C361.643 42.8227 362.96 42.2853 363.931 41.176C364.936 40.032 365.439 38.5067 365.439 36.6C365.439 34.7627 364.936 33.3067 363.931 32.232C362.96 31.1227 361.643 30.568 359.979 30.568C358.349 30.568 357.049 31.1227 356.079 32.232C355.108 33.3067 354.623 34.78 354.623 36.652C354.623 38.524 355.108 40.032 356.079 41.176C357.049 42.2853 358.349 42.8227 359.979 42.788ZM399.315 26.304V30.204H396.455V46.48C396.455 49.9467 395.45 52.564 393.439 54.332C391.463 56.1 388.759 56.984 385.327 56.984C382.623 56.984 379.728 56.4813 376.643 55.476L377.683 51.368C380.179 52.1653 382.415 52.564 384.391 52.564C386.263 52.564 387.684 52.1133 388.655 51.212C389.66 50.3107 390.163 48.9933 390.163 47.26V45.284C388.395 46.636 386.315 47.312 383.923 47.312C380.907 47.312 378.463 46.3587 376.591 44.452C374.754 42.5107 373.835 39.8933 373.835 36.6C373.835 33.3067 374.754 30.6893 376.591 28.748C378.428 26.8067 380.855 25.836 383.871 25.836C385.084 25.836 386.263 26.0613 387.407 26.512C388.551 26.928 389.539 27.5 390.371 28.228L390.423 26.304H399.315ZM380.335 36.704C380.335 38.576 380.838 40.0493 381.843 41.124C382.883 42.1987 384.218 42.736 385.847 42.736C387.407 42.736 388.846 42.3027 390.163 41.436L390.111 31.92C388.62 30.88 387.13 30.36 385.639 30.36C384.044 30.36 382.762 30.9147 381.791 32.024C380.82 33.0987 380.335 34.6587 380.335 36.704ZM404.793 50.9H406.873C408.19 50.9 409.161 50.7093 409.785 50.328C410.444 49.9467 411.033 49.132 411.553 47.884L412.489 45.648H410.617L402.921 30.204H400.165V26.304H412.021V30.204H409.369L414.309 41.176L418.885 30.204H415.973V26.304H426.997V30.204H424.501L416.233 48.352C415.332 50.328 414.569 51.784 413.945 52.72C413.321 53.656 412.489 54.3667 411.449 54.852C410.444 55.3373 409.057 55.58 407.289 55.58H404.793V50.9Z" fill="#E1E1E6"/>
<defs>
<clipPath id="clip0">
<rect width="49.399" height="49.399" fill="white" transform="translate(0 4)"/>
</clipPath>
</defs>
</svg>
